<svg aria-hidden="true" style="position: absolute; width: 0; height: 0; overflow: hidden;" version="1.1" xmlns="http://www.w3.org/2000/svg" xmlns:xlink="http://www.w3.org/1999/xlink">
<defs>
<symbol id="icon-cart" viewBox="0 0 32 32">
<title>cart</title>
<path d="M12 29c0 1.657-1.343 3-3 3s-3-1.343-3-3c0-1.657 1.343-3 3-3s3 1.343 3 3z"></path>
<path d="M32 29c0 1.657-1.343 3-3 3s-3-1.343-3-3c0-1.657 1.343-3 3-3s3 1.343 3 3z"></path>
<path d="M32 16v-12h-24c0-1.105-0.895-2-2-2h-6v2h4l1.502 12.877c-0.915 0.733-1.502 1.859-1.502 3.123 0 2.209 1.791 4 4 4h24v-2h-24c-1.105 0-2-0.895-2-2 0-0.007 0-0.014 0-0.020l26-3.98z"></path>
</symbol>
<symbol id="icon-envelop" viewBox="0 0 32 32">
<title>envelop</title>
<path d="M29 4h-26c-1.65 0-3 1.35-3 3v20c0 1.65 1.35 3 3 3h26c1.65 0 3-1.35 3-3v-20c0-1.65-1.35-3-3-3zM12.461 17.199l-8.461 6.59v-15.676l8.461 9.086zM5.512 8h20.976l-10.488 7.875-10.488-7.875zM12.79 17.553l3.21 3.447 3.21-3.447 6.58 8.447h-19.579l6.58-8.447zM19.539 17.199l8.461-9.086v15.676l-8.461-6.59z"></path>
</symbol>
<symbol id="icon-user" viewBox="0 0 32 32">
<title>user</title>
<path d="M18 22.082v-1.649c2.203-1.241 4-4.337 4-7.432 0-4.971 0-9-6-9s-6 4.029-6 9c0 3.096 1.797 6.191 4 7.432v1.649c-6.784 0.555-12 3.888-12 7.918h28c0-4.030-5.216-7.364-12-7.918z"></path>
</symbol>
<symbol id="icon-hammer2" viewBox="0 0 32 32">
<title>hammer2</title>
<path d="M31.568 28.617l-17.145-15.608 0.798-0.8c0.653-0.655 1.006-1.501 1.060-2.363 0.031-0.014 0.063-0.028 0.092-0.045l3.218-2.013c0.435-0.512 0.404-1.321-0.071-1.797l-5.598-5.613c-0.475-0.476-1.281-0.508-1.792-0.071l-2.007 3.227c-0.016 0.030-0.031 0.061-0.045 0.093-0.859 0.054-1.703 0.408-2.356 1.063l-3.045 3.053c-0.653 0.655-1.006 1.501-1.060 2.363-0.031 0.014-0.063 0.029-0.093 0.045l-3.218 2.013c-0.436 0.512-0.404 1.321 0.071 1.797l5.598 5.613c0.475 0.476 1.281 0.508 1.792 0.071l2.007-3.227c0.017-0.030 0.031-0.061 0.045-0.093 0.859-0.054 1.703-0.408 2.356-1.063l0.884-0.887 15.566 17.191c0.451 0.498 1.147 0.579 1.546 0.178l1.574-1.578c0.399-0.4 0.319-1.098-0.178-1.55z"></path>
</symbol>
<symbol id="icon-star-full" viewBox="0 0 32 32">
<title>star-full</title>
<path d="M32 12.408l-11.056-1.607-4.944-10.018-4.944 10.018-11.056 1.607 8 7.798-1.889 11.011 9.889-5.199 9.889 5.199-1.889-11.011 8-7.798z"></path>
</symbol>
<symbol id="icon-info" viewBox="0 0 32 32">
<title>info</title>
<path d="M14 9.5c0-0.825 0.675-1.5 1.5-1.5h1c0.825 0 1.5 0.675 1.5 1.5v1c0 0.825-0.675 1.5-1.5 1.5h-1c-0.825 0-1.5-0.675-1.5-1.5v-1z"></path>
<path d="M20 24h-8v-2h2v-6h-2v-2h6v8h2z"></path>
<path d="M16 0c-8.837 0-16 7.163-16 16s7.163 16 16 16 16-7.163 16-16-7.163-16-16-16zM16 29c-7.18 0-13-5.82-13-13s5.82-13 13-13 13 5.82 13 13-5.82 13-13 13z"></path>
</symbol>
</defs>
</svg>
